STARTFONT 2.1
FONT -JDECW-Screen-Medium-R-Normal--24-240-75-75-M-120-DEC-DECsuppl
SIZE 24 75 75
FONTBOUNDINGBOX 12 24 0 -4

STARTPROPERTIES 26
FONTNAME_REGISTRY ""
FAMILY_NAME "Screen"
FOUNDRY "JDECW"
WEIGHT_NAME "Medium"
SLANT "R"
SETWIDTH_NAME "Normal"
ADD_STYLE_NAME ""
PIXEL_SIZE 24
POINT_SIZE 240
RESOLUTION_X 75
RESOLUTION_Y 75
SPACING "M"
AVERAGE_WIDTH 120
CHARSET_REGISTRY "DEC"
CHARSET_ENCODING "DECsuppl"
DEVICE_FONT_NAME "Screen-DECsuppl"
CHARSET_COLLECTIONS "DEC supplemental"
FULL_NAME "Screen DECsuppl"
COPYRIGHT "Copyright (c) 1988 Digital Equipment Corporation Japan."
CAP_HEIGHT 17
X_HEIGHT 12
WEIGHT 10
QUAD_WIDTH 12
DEFAULT_CHAR 32
FONT_DESCENT 4
FONT_ASCENT 20
ENDPROPERTIES

CHARS 254

STARTCHAR C00
ENCODING 0
SWIDTH 500 0
DWIDTH 12 0
BBX 12 24 0 -4
BITMAP
0000
0000
0000
0000
0000
0000
0000
0000
0000
0000
0000
0000
0000
0000
0000
0000
0000
0000
0000
0000
0000
0000
0000
0000
ENDCHAR

STARTCHAR C01
ENCODING 1
SWIDTH 500 0
DWIDTH 12 0
BBX 12 24 0 -4
BITMAP
0000
0000
0000
0400
0400
0E00
0E00
1F00
1F00
3F80
3F80
7FC0
3F80
3F80
1F00
1F00
0E00
0E00
0400
0400
0000
0000
0000
0000
ENDCHAR

STARTCHAR C02
ENCODING 2
SWIDTH 500 0
DWIDTH 12 0
BBX 12 24 0 -4
BITMAP
0000
0000
0000
6660
6660
0000
0000
1980
1980
0000
0000
6660
6660
0000
0000
1980
1980
0000
0000
6660
6660
0000
0000
0000
ENDCHAR

STARTCHAR C03
ENCODING 3
SWIDTH 500 0
DWIDTH 12 0
BBX 12 24 0 -4
BITMAP
0000
0000
0000
4100
4100
4100
4100
7F00
4100
4100
4100
4100
0000
0FE0
0100
0100
0100
0100
0100
0100
0100
0100
0000
0000
ENDCHAR

STARTCHAR C04
ENCODING 4
SWIDTH 500 0
DWIDTH 12 0
BBX 12 24 0 -4
BITMAP
0000
0000
0000
7F00
4000
4000
4000
7E00
4000
4000
4000
4000
4000
0FE0
0800
0800
0800
0FC0
0800
0800
0800
0800
0800
0000
ENDCHAR

STARTCHAR C05
ENCODING 5
SWIDTH 500 0
DWIDTH 12 0
BBX 12 24 0 -4
BITMAP
0000
0000
0000
1E00
2100
2000
4000
4000
4000
2000
2100
1E00
0000
0FC0
0820
0820
0820
0FC0
0880
0840
0840
0820
0820
0000
ENDCHAR

STARTCHAR C06
ENCODING 6
SWIDTH 500 0
DWIDTH 12 0
BBX 12 24 0 -4
BITMAP
0000
0000
0000
4000
4000
4000
4000
4000
4000
4000
4000
7F00
0000
0FE0
0800
0800
0800
0FC0
0800
0800
0800
0800
0800
0000
ENDCHAR

STARTCHAR C07
ENCODING 7
SWIDTH 500 0
DWIDTH 12 0
BBX 12 24 0 -4
BITMAP
0000
0E00
1100
1100
1100
0E00
0000
0000
0000
0000
0000
0000
0000
0000
0000
0000
0000
0000
0000
0000
0000
0000
0000
0000
ENDCHAR

STARTCHAR C08
ENCODING 8
SWIDTH 500 0
DWIDTH 12 0
BBX 12 24 0 -4
BITMAP
0000
0000
0000
0000
0400
0400
0400
0400
0400
0400
3FC0
0400
0400
0400
0400
0400
0000
0000
3FE0
0000
0000
0000
0000
0000
ENDCHAR

STARTCHAR C09
ENCODING 9
SWIDTH 500 0
DWIDTH 12 0
BBX 12 24 0 -4
BITMAP
0000
0000
0000
4100
4100
6100
5100
4900
4500
4300
4100
4100
0000
0800
0800
0800
0800
0800
0800
0800
0800
0800
0FE0
0000
ENDCHAR

STARTCHAR C0a
ENCODING 10
SWIDTH 500 0
DWIDTH 12 0
BBX 12 24 0 -4
BITMAP
0000
0000
0000
4100
4100
4100
2200
2200
1400
1400
0800
0800
0000
0FE0
0100
0100
0100
0100
0100
0100
0100
0100
0100
0000
ENDCHAR

STARTCHAR C0b
ENCODING 11
SWIDTH 500 0
DWIDTH 12 0
BBX 12 24 0 -4
BITMAP
0600
0600
0600
0600
0600
0600
0600
0600
0600
0600
0600
FE00
FE00
0000
0000
0000
0000
0000
0000
0000
0000
0000
0000
0000
ENDCHAR

STARTCHAR C0c
ENCODING 12
SWIDTH 500 0
DWIDTH 12 0
BBX 12 24 0 -4
BITMAP
0000
0000
0000
0000
0000
0000
0000
0000
0000
0000
0000
FE00
FE00
0600
0600
0600
0600
0600
0600
0600
0600
0600
0600
0600
ENDCHAR

STARTCHAR C0d
ENCODING 13
SWIDTH 500 0
DWIDTH 12 0
BBX 12 24 0 -4
BITMAP
0000
0000
0000
0000
0000
0000
0000
0000
0000
0000
0000
07F0
07F0
0600
0600
0600
0600
0600
0600
0600
0600
0600
0600
0600
ENDCHAR

STARTCHAR C0e
ENCODING 14
SWIDTH 500 0
DWIDTH 12 0
BBX 12 24 0 -4
BITMAP
0600
0600
0600
0600
0600
0600
0600
0600
0600
0600
0600
07F0
07F0
0000
0000
0000
0000
0000
0000
0000
0000
0000
0000
0000
ENDCHAR

STARTCHAR C0f
ENCODING 15
SWIDTH 500 0
DWIDTH 12 0
BBX 12 24 0 -4
BITMAP
0600
0600
0600
0600
0600
0600
0600
0600
0600
0600
0600
FFF0
FFF0
0600
0600
0600
0600
0600
0600
0600
0600
0600
0600
0600
ENDCHAR

STARTCHAR C10
ENCODING 16
SWIDTH 500 0
DWIDTH 12 0
BBX 12 24 0 -4
BITMAP
0000
FFF0
FFF0
0000
0000
0000
0000
0000
0000
0000
0000
0000
0000
0000
0000
0000
0000
0000
0000
0000
0000
0000
0000
0000
ENDCHAR

STARTCHAR C11
ENCODING 17
SWIDTH 500 0
DWIDTH 12 0
BBX 12 24 0 -4
BITMAP
0000
0000
0000
0000
0000
0000
FFF0
FFF0
0000
0000
0000
0000
0000
0000
0000
0000
0000
0000
0000
0000
0000
0000
0000
0000
ENDCHAR

STARTCHAR C12
ENCODING 18
SWIDTH 500 0
DWIDTH 12 0
BBX 12 24 0 -4
BITMAP
0000
0000
0000
0000
0000
0000
0000
0000
0000
0000
0000
FFF0
FFF0
0000
0000
0000
0000
0000
0000
0000
0000
0000
0000
0000
ENDCHAR

STARTCHAR C13
ENCODING 19
SWIDTH 500 0
DWIDTH 12 0
BBX 12 24 0 -4
BITMAP
0000
0000
0000
0000
0000
0000
0000
0000
0000
0000
0000
0000
0000
0000
0000
0000
FFF0
FFF0
0000
0000
0000
0000
0000
0000
ENDCHAR

STARTCHAR C14
ENCODING 20
SWIDTH 500 0
DWIDTH 12 0
BBX 12 24 0 -4
BITMAP
0000
0000
0000
0000
0000
0000
0000
0000
0000
0000
0000
0000
0000
0000
0000
0000
0000
0000
0000
0000
0000
FFF0
FFF0
0000
ENDCHAR

STARTCHAR C15
ENCODING 21
SWIDTH 500 0
DWIDTH 12 0
BBX 12 24 0 -4
BITMAP
0600
0600
0600
0600
0600
0600
0600
0600
0600
0600
0600
07F0
07F0
0600
0600
0600
0600
0600
0600
0600
0600
0600
0600
0600
ENDCHAR

STARTCHAR C16
ENCODING 22
SWIDTH 500 0
DWIDTH 12 0
BBX 12 24 0 -4
BITMAP
0600
0600
0600
0600
0600
0600
0600
0600
0600
0600
0600
FE00
FE00
0600
0600
0600
0600
0600
0600
0600
0600
0600
0600
0600
ENDCHAR

STARTCHAR C17
ENCODING 23
SWIDTH 500 0
DWIDTH 12 0
BBX 12 24 0 -4
BITMAP
0600
0600
0600
0600
0600
0600
0600
0600
0600
0600
0600
FFF0
FFF0
0000
0000
0000
0000
0000
0000
0000
0000
0000
0000
0000
ENDCHAR

STARTCHAR C18
ENCODING 24
SWIDTH 500 0
DWIDTH 12 0
BBX 12 24 0 -4
BITMAP
0000
0000
0000
0000
0000
0000
0000
0000
0000
0000
0000
FFF0
FFF0
0600
0600
0600
0600
0600
0600
0600
0600
0600
0600
0600
ENDCHAR

STARTCHAR C19
ENCODING 25
SWIDTH 500 0
DWIDTH 12 0
BBX 12 24 0 -4
BITMAP
0600
0600
0600
0600
0600
0600
0600
0600
0600
0600
0600
0600
0600
0600
0600
0600
0600
0600
0600
0600
0600
0600
0600
0600
ENDCHAR

STARTCHAR C1a
ENCODING 26
SWIDTH 500 0
DWIDTH 12 0
BBX 12 24 0 -4
BITMAP
0000
0000
0000
0000
0000
0040
0180
0200
0C00
1000
2000
1000
0C00
0200
0180
0040
0000
0000
3FC0
0000
0000
0000
0000
0000
ENDCHAR

STARTCHAR C1b
ENCODING 27
SWIDTH 500 0
DWIDTH 12 0
BBX 12 24 0 -4
BITMAP
0000
0000
0000
0000
0000
2000
1800
0400
0300
0080
0040
0080
0300
0400
1800
2000
0000
0000
3FC0
0000
0000
0000
0000
0000
ENDCHAR

STARTCHAR C1c
ENCODING 28
SWIDTH 500 0
DWIDTH 12 0
BBX 12 24 0 -4
BITMAP
0000
0000
0000
0000
0000
0000
0000
0020
1FE0
3FC0
2D80
4D80
0D80
1980
1980
1B00
3300
3320
6320
61C0
0000
0000
0000
0000
ENDCHAR

STARTCHAR C1d
ENCODING 29
SWIDTH 500 0
DWIDTH 12 0
BBX 12 24 0 -4
BITMAP
0000
0000
0000
0000
0100
0100
0100
0200
0200
3FC0
0200
0200
0400
3FC0
0400
0400
0800
0800
0800
0000
0000
0000
0000
0000
ENDCHAR

STARTCHAR C1e
ENCODING 30
SWIDTH 500 0
DWIDTH 12 0
BBX 12 24 0 -4
BITMAP
0000
0000
0000
0380
0440
0C60
0C60
0C00
0C00
0C00
0C00
7F80
0C00
0C00
0C00
0C00
0C00
3C20
4A20
31C0
0000
0000
0000
0000
ENDCHAR

STARTCHAR C1f
ENCODING 31
SWIDTH 500 0
DWIDTH 12 0
BBX 12 24 0 -4
BITMAP
0000
0000
0000
0000
0000
0000
0000
0000
0000
0000
0600
0F00
0F00
0600
0000
0000
0000
0000
0000
0000
0000
0000
0000
0000
ENDCHAR

STARTCHAR C20
ENCODING 32
SWIDTH 500 0
DWIDTH 12 0
BBX 12 24 0 -4
BITMAP
0000
0000
0000
0000
0000
0000
0000
0000
0000
0000
0000
0000
0000
0000
0000
0000
0000
0000
0000
0000
0000
0000
0000
0000
ENDCHAR

STARTCHAR C21
ENCODING 33
SWIDTH 500 0
DWIDTH 12 0
BBX 12 24 0 -4
BITMAP
0000
0000
0400
0E00
0E00
0E00
0E00
0E00
0E00
0E00
0400
0400
0400
0400
0400
0000
0000
0400
0E00
0400
0000
0000
0000
0000
ENDCHAR

STARTCHAR C22
ENCODING 34
SWIDTH 500 0
DWIDTH 12 0
BBX 12 24 0 -4
BITMAP
0000
3300
3B80
1980
1100
2200
0000
0000
0000
0000
0000
0000
0000
0000
0000
0000
0000
0000
0000
0000
0000
0000
0000
0000
ENDCHAR

STARTCHAR C23
ENCODING 35
SWIDTH 500 0
DWIDTH 12 0
BBX 12 24 0 -4
BITMAP
0000
0000
0100
0900
0900
0900
09C0
0FC0
3F00
3900
0900
0900
0900
0900
09C0
0FC0
3F00
3900
0900
0900
0900
0800
0000
0000
ENDCHAR

STARTCHAR C24
ENCODING 36
SWIDTH 500 0
DWIDTH 12 0
BBX 12 24 0 -4
BITMAP
0000
0400
0400
1F00
3580
24C0
64C0
6400
6400
2400
1C00
0700
0580
04C0
04C0
04C0
64C0
6480
3580
1F00
0400
0400
0000
0000
ENDCHAR

STARTCHAR C25
ENCODING 37
SWIDTH 500 0
DWIDTH 12 0
BBX 12 24 0 -4
BITMAP
0000
0000
0000
1820
2460
2440
24C0
2480
1980
0100
0300
0200
0600
0400
0CC0
0920
1920
1120
3120
20C0
0000
0000
0000
0000
ENDCHAR

STARTCHAR C26
ENCODING 38
SWIDTH 500 0
DWIDTH 12 0
BBX 12 24 0 -4
BITMAP
0000
0000
0000
0E00
1100
3180
3180
3100
1900
1A00
0CE0
1C40
2C40
6680
6680
6300
6320
6320
25A0
18C0
0000
0000
0000
0000
ENDCHAR

STARTCHAR C27
ENCODING 39
SWIDTH 500 0
DWIDTH 12 0
BBX 12 24 0 -4
BITMAP
0000
3000
3800
1800
1800
1000
2000
0000
0000
0000
0000
0000
0000
0000
0000
0000
0000
0000
0000
0000
0000
0000
0000
0000
ENDCHAR

STARTCHAR C28
ENCODING 40
SWIDTH 500 0
DWIDTH 12 0
BBX 12 24 0 -4
BITMAP
0000
0040
0080
0180
0100
0100
0300
0200
0200
0600
0600
0600
0600
0600
0600
0200
0200
0300
0100
0100
0180
0080
0040
0000
ENDCHAR

STARTCHAR C29
ENCODING 41
SWIDTH 500 0
DWIDTH 12 0
BBX 12 24 0 -4
BITMAP
0000
2000
1000
1800
0800
0800
0C00
0400
0400
0600
0600
0600
0600
0600
0600
0400
0400
0C00
0800
0800
1800
1000
2000
0000
ENDCHAR

STARTCHAR C2a
ENCODING 42
SWIDTH 500 0
DWIDTH 12 0
BBX 12 24 0 -4
BITMAP
0000
0000
0000
0000
0000
0000
0400
0E00
0E00
64C0
75C0
0E00
0E00
75C0
64C0
0E00
0E00
0400
0000
0000
0000
0000
0000
0000
ENDCHAR

STARTCHAR C2b
ENCODING 43
SWIDTH 500 0
DWIDTH 12 0
BBX 12 24 0 -4
BITMAP
0000
0000
0000
0000
0400
0400
0400
0400
0400
0400
0400
7FC0
0400
0400
0400
0400
0400
0400
0400
0000
0000
0000
0000
0000
ENDCHAR

STARTCHAR C2c
ENCODING 44
SWIDTH 500 0
DWIDTH 12 0
BBX 12 24 0 -4
BITMAP
0000
0000
0000
0000
0000
0000
0000
0000
0000
0000
0000
0000
0000
0000
0000
0000
0000
3000
3800
1800
1800
1000
2000
0000
ENDCHAR

STARTCHAR C2d
ENCODING 45
SWIDTH 500 0
DWIDTH 12 0
BBX 12 24 0 -4
BITMAP
0000
0000
0000
0000
0000
0000
0000
0000
0000
0000
0000
3FC0
0000
0000
0000
0000
0000
0000
0000
0000
0000
0000
0000
0000
ENDCHAR

STARTCHAR C2e
ENCODING 46
SWIDTH 500 0
DWIDTH 12 0
BBX 12 24 0 -4
BITMAP
0000
0000
0000
0000
0000
0000
0000
0000
0000
0000
0000
0000
0000
0000
0000
0000
1800
3C00
3C00
1800
0000
0000
0000
0000
ENDCHAR

STARTCHAR C2f
ENCODING 47
SWIDTH 500 0
DWIDTH 12 0
BBX 12 24 0 -4
BITMAP
0000
0020
0020
0040
0040
0080
0080
0100
0100
0100
0200
0200
0400
0400
0800
0800
0800
1000
1000
2000
2000
4000
4000
0000
ENDCHAR

STARTCHAR C30
ENCODING 48
SWIDTH 500 0
DWIDTH 12 0
BBX 12 24 0 -4
BITMAP
0000
0000
0040
0F40
10C0
1080
20C0
2140
6160
6160
6260
6260
6460
6460
6860
2840
2840
1080
1080
2F00
2000
0000
0000
0000
ENDCHAR

STARTCHAR C31
ENCODING 49
SWIDTH 500 0
DWIDTH 12 0
BBX 12 24 0 -4
BITMAP
0000
0000
0000
0200
0600
3E00
0600
0600
0600
0600
0600
0600
0600
0600
0600
0600
0600
0600
0600
3FC0
0000
0000
0000
0000
ENDCHAR

STARTCHAR C32
ENCODING 50
SWIDTH 500 0
DWIDTH 12 0
BBX 12 24 0 -4
BITMAP
0000
0000
0000
0F00
30C0
2060
4060
0060
0060
0060
00C0
00C0
0180
0100
0200
0400
0820
1020
3FE0
7FE0
0000
0000
0000
0000
ENDCHAR

STARTCHAR C33
ENCODING 51
SWIDTH 500 0
DWIDTH 12 0
BBX 12 24 0 -4
BITMAP
0000
0000
0000
0780
18C0
1060
2060
0060
0040
0080
0700
0F80
00C0
0060
0060
0060
0060
40C0
2180
1F00
0000
0000
0000
0000
ENDCHAR

STARTCHAR C34
ENCODING 52
SWIDTH 500 0
DWIDTH 12 0
BBX 12 24 0 -4
BITMAP
0000
0000
0000
0180
0180
0380
0380
0580
0580
0980
0980
1180
1180
2180
2180
7FE0
0180
0180
0180
07E0
0000
0000
0000
0000
ENDCHAR

STARTCHAR C35
ENCODING 53
SWIDTH 500 0
DWIDTH 12 0
BBX 12 24 0 -4
BITMAP
0000
0000
0000
7FC0
7FC0
4000
4000
4000
4000
4F80
58C0
6040
4060
0060
0060
0060
0060
40C0
2180
1F00
0000
0000
0000
0000
ENDCHAR

STARTCHAR C36
ENCODING 54
SWIDTH 500 0
DWIDTH 12 0
BBX 12 24 0 -4
BITMAP
0000
0000
0000
0F80
1840
3020
2000
6000
6000
6000
6F80
70C0
6060
6060
6060
6060
2060
3040
18C0
0F80
0000
0000
0000
0000
ENDCHAR

STARTCHAR C37
ENCODING 55
SWIDTH 500 0
DWIDTH 12 0
BBX 12 24 0 -4
BITMAP
0000
0000
0000
7FE0
7FE0
6020
4040
4040
0080
0080
0180
0100
0300
0300
0300
0600
0600
0600
0600
0600
0000
0000
0000
0000
ENDCHAR

STARTCHAR C38
ENCODING 56
SWIDTH 500 0
DWIDTH 12 0
BBX 12 24 0 -4
BITMAP
0000
0000
0000
0F00
30C0
6060
6060
6060
6060
3040
1C80
0F00
1380
20C0
6060
6060
6060
6060
30C0
0F00
0000
0000
0000
0000
ENDCHAR

STARTCHAR C39
ENCODING 57
SWIDTH 500 0
DWIDTH 12 0
BBX 12 24 0 -4
BITMAP
0000
0000
0000
1F00
3180
60C0
60C0
6060
6060
6060
6060
30E0
1F60
0060
0060
0060
0040
40C0
2180
1F00
0000
0000
0000
0000
ENDCHAR

STARTCHAR C3a
ENCODING 58
SWIDTH 500 0
DWIDTH 12 0
BBX 12 24 0 -4
BITMAP
0000
0000
0000
0000
0000
0000
0000
0600
0F00
0F00
0600
0000
0000
0000
0000
0000
0600
0F00
0F00
0600
0000
0000
0000
0000
ENDCHAR

STARTCHAR C3b
ENCODING 59
SWIDTH 500 0
DWIDTH 12 0
BBX 12 24 0 -4
BITMAP
0000
0000
0000
0000
0000
0000
0C00
1E00
1E00
0C00
0000
0000
0000
0000
0000
0000
0C00
1E00
1E00
0600
0600
0400
1800
0000
ENDCHAR

STARTCHAR C3c
ENCODING 60
SWIDTH 500 0
DWIDTH 12 0
BBX 12 24 0 -4
BITMAP
0000
0000
0000
0040
0080
0100
0200
0400
0800
1000
2000
4000
2000
1000
0800
0400
0200
0100
0080
0040
0000
0000
0000
0000
ENDCHAR

STARTCHAR C3d
ENCODING 61
SWIDTH 500 0
DWIDTH 12 0
BBX 12 24 0 -4
BITMAP
0000
0000
0000
0000
0000
0000
0000
0000
0000
3FC0
0000
0000
0000
3FC0
0000
0000
0000
0000
0000
0000
0000
0000
0000
0000
ENDCHAR

STARTCHAR C3e
ENCODING 62
SWIDTH 500 0
DWIDTH 12 0
BBX 12 24 0 -4
BITMAP
0000
0000
0000
4000
2000
1000
0800
0400
0200
0100
0080
0040
0080
0100
0200
0400
0800
1000
2000
4000
0000
0000
0000
0000
ENDCHAR

STARTCHAR C3f
ENCODING 63
SWIDTH 500 0
DWIDTH 12 0
BBX 12 24 0 -4
BITMAP
0000
0000
0000
0F00
30C0
6060
6060
7060
3060
00C0
0180
0300
0200
0200
0200
0000
0000
0200
0700
0200
0000
0000
0000
0000
ENDCHAR

STARTCHAR C40
ENCODING 64
SWIDTH 500 0
DWIDTH 12 0
BBX 12 24 0 -4
BITMAP
0000
0000
0000
0700
1880
3040
2040
46A0
49A0
49A0
59A0
59A0
59A0
59A0
49A0
46C0
2000
2020
1040
0F80
0000
0000
0000
0000
ENDCHAR

STARTCHAR C41
ENCODING 65
SWIDTH 500 0
DWIDTH 12 0
BBX 12 24 0 -4
BITMAP
0000
0000
0000
0600
0600
0600
0600
0B00
0B00
0B00
0B00
1180
1180
1180
1F80
20C0
20C0
20C0
20C0
71E0
0000
0000
0000
0000
ENDCHAR

STARTCHAR C42
ENCODING 66
SWIDTH 500 0
DWIDTH 12 0
BBX 12 24 0 -4
BITMAP
0000
0000
0000
7E00
3180
3080
30C0
30C0
30C0
3080
3100
3F00
30C0
3040
3060
3060
3060
3040
30C0
7F00
0000
0000
0000
0000
ENDCHAR

STARTCHAR C43
ENCODING 67
SWIDTH 500 0
DWIDTH 12 0
BBX 12 24 0 -4
BITMAP
0000
0000
0000
0720
18A0
1060
3020
2020
6000
6000
6000
6000
6000
6000
6000
2000
3020
1020
1840
0780
0000
0000
0000
0000
ENDCHAR

STARTCHAR C44
ENCODING 68
SWIDTH 500 0
DWIDTH 12 0
BBX 12 24 0 -4
BITMAP
0000
0000
0000
7E00
3180
3080
30C0
3040
3060
3060
3060
3060
3060
3060
3060
3040
30C0
3080
3180
7E00
0000
0000
0000
0000
ENDCHAR

STARTCHAR C45
ENCODING 69
SWIDTH 500 0
DWIDTH 12 0
BBX 12 24 0 -4
BITMAP
0000
0000
0000
7FC0
3040
3020
3000
3000
3000
3080
3080
3F80
3080
3080
3000
3000
3000
3020
3040
7FC0
0000
0000
0000
0000
ENDCHAR

STARTCHAR C46
ENCODING 70
SWIDTH 500 0
DWIDTH 12 0
BBX 12 24 0 -4
BITMAP
0000
0000
0000
7FC0
3040
3020
3000
3000
3000
3080
3080
3F80
3080
3080
3000
3000
3000
3000
3000
7800
0000
0000
0000
0000
ENDCHAR

STARTCHAR C47
ENCODING 71
SWIDTH 500 0
DWIDTH 12 0
BBX 12 24 0 -4
BITMAP
0000
0000
0000
0E40
1140
30C0
2040
6040
6000
6000
6000
6000
61E0
60C0
60C0
60C0
20C0
30C0
1140
0E40
0000
0000
0000
0000
ENDCHAR

STARTCHAR C48
ENCODING 72
SWIDTH 500 0
DWIDTH 12 0
BBX 12 24 0 -4
BITMAP
0000
0000
0000
79E0
30C0
30C0
30C0
30C0
30C0
30C0
30C0
3FC0
30C0
30C0
30C0
30C0
30C0
30C0
30C0
79E0
0000
0000
0000
0000
ENDCHAR

STARTCHAR C49
ENCODING 73
SWIDTH 500 0
DWIDTH 12 0
BBX 12 24 0 -4
BITMAP
0000
0000
0000
1F80
0600
0600
0600
0600
0600
0600
0600
0600
0600
0600
0600
0600
0600
0600
0600
1F80
0000
0000
0000
0000
ENDCHAR

STARTCHAR C4a
ENCODING 74
SWIDTH 500 0
DWIDTH 12 0
BBX 12 24 0 -4
BITMAP
0000
0000
0000
07E0
0180
0180
0180
0180
0180
0180
0180
0180
0180
0180
0180
3180
7180
6100
2300
1C00
0000
0000
0000
0000
ENDCHAR

STARTCHAR C4b
ENCODING 75
SWIDTH 500 0
DWIDTH 12 0
BBX 12 24 0 -4
BITMAP
0000
0000
0000
79E0
30C0
3080
3100
3100
3200
3200
3600
3600
3B00
3300
3180
3180
30C0
30C0
30C0
79E0
0000
0000
0000
0000
ENDCHAR

STARTCHAR C4c
ENCODING 76
SWIDTH 500 0
DWIDTH 12 0
BBX 12 24 0 -4
BITMAP
0000
0000
0000
7800
3000
3000
3000
3000
3000
3000
3000
3000
3000
3000
3000
3000
3000
3020
3040
7FC0
0000
0000
0000
0000
ENDCHAR

STARTCHAR C4d
ENCODING 77
SWIDTH 500 0
DWIDTH 12 0
BBX 12 24 0 -4
BITMAP
0000
0000
0000
6060
6060
6060
6060
70E0
70E0
70E0
5160
5160
5960
5A60
4A60
4A60
4C60
4C60
4C60
4C60
0000
0000
0000
0000
ENDCHAR

STARTCHAR C4e
ENCODING 78
SWIDTH 500 0
DWIDTH 12 0
BBX 12 24 0 -4
BITMAP
0000
0000
0000
70E0
3040
3840
3840
3840
2C40
2C40
2640
2640
2340
2340
21C0
21C0
20C0
20C0
2040
7040
0000
0000
0000
0000
ENDCHAR

STARTCHAR C4f
ENCODING 79
SWIDTH 500 0
DWIDTH 12 0
BBX 12 24 0 -4
BITMAP
0000
0000
0000
0F00
1080
30C0
2040
6060
6060
6060
6060
6060
6060
6060
6060
6060
2040
30C0
1080
0F00
0000
0000
0000
0000
ENDCHAR

STARTCHAR C50
ENCODING 80
SWIDTH 500 0
DWIDTH 12 0
BBX 12 24 0 -4
BITMAP
0000
0000
0000
7F00
30C0
3040
3060
3060
3060
3040
30C0
3F00
3000
3000
3000
3000
3000
3000
3000
7800
0000
0000
0000
0000
ENDCHAR

STARTCHAR C51
ENCODING 81
SWIDTH 500 0
DWIDTH 12 0
BBX 12 24 0 -4
BITMAP
0000
0000
0000
0F00
1080
30C0
2040
6060
6060
6060
6060
6060
6060
6060
6060
6060
2640
2940
1080
0F80
00A0
0040
0000
0000
ENDCHAR

STARTCHAR C52
ENCODING 82
SWIDTH 500 0
DWIDTH 12 0
BBX 12 24 0 -4
BITMAP
0000
0000
0000
7E00
3180
3080
30C0
30C0
30C0
3080
3180
3E00
3200
3100
3100
3180
3180
31A0
30A0
78C0
0000
0000
0000
0000
ENDCHAR

STARTCHAR C53
ENCODING 83
SWIDTH 500 0
DWIDTH 12 0
BBX 12 24 0 -4
BITMAP
0000
0000
0000
0F20
30A0
2060
6020
6020
6000
3000
1E00
0780
00C0
0040
0060
4060
4060
6060
50C0
4F00
0000
0000
0000
0000
ENDCHAR

STARTCHAR C54
ENCODING 84
SWIDTH 500 0
DWIDTH 12 0
BBX 12 24 0 -4
BITMAP
0000
0000
0000
3FC0
2640
4620
0600
0600
0600
0600
0600
0600
0600
0600
0600
0600
0600
0600
0600
0F00
0000
0000
0000
0000
ENDCHAR

STARTCHAR C55
ENCODING 85
SWIDTH 500 0
DWIDTH 12 0
BBX 12 24 0 -4
BITMAP
0000
0000
0000
78E0
3040
3040
3040
3040
3040
3040
3040
3040
3040
3040
3040
3040
3040
1040
1880
0700
0000
0000
0000
0000
ENDCHAR

STARTCHAR C56
ENCODING 86
SWIDTH 500 0
DWIDTH 12 0
BBX 12 24 0 -4
BITMAP
0000
0000
0000
78E0
3040
3040
3040
3040
1880
1880
1880
1880
0D00
0D00
0D00
0D00
0600
0600
0600
0600
0000
0000
0000
0000
ENDCHAR

STARTCHAR C57
ENCODING 87
SWIDTH 500 0
DWIDTH 12 0
BBX 12 24 0 -4
BITMAP
0000
0000
0000
6620
6620
6620
6620
6620
6620
6620
6B40
6B40
6B40
6B40
6B40
3180
3180
3180
3180
3180
0000
0000
0000
0000
ENDCHAR

STARTCHAR C58
ENCODING 88
SWIDTH 500 0
DWIDTH 12 0
BBX 12 24 0 -4
BITMAP
0000
0000
0000
78E0
3040
3040
1880
1880
0D00
0D00
0600
0600
0600
0B00
0B00
1180
1180
20C0
20C0
71E0
0000
0000
0000
0000
ENDCHAR

STARTCHAR C59
ENCODING 89
SWIDTH 500 0
DWIDTH 12 0
BBX 12 24 0 -4
BITMAP
0000
0000
0000
78E0
3040
3040
3040
1880
1880
1880
0D00
0D00
0D00
0600
0600
0600
0600
0600
0600
0F00
0000
0000
0000
0000
ENDCHAR

STARTCHAR C5a
ENCODING 90
SWIDTH 500 0
DWIDTH 12 0
BBX 12 24 0 -4
BITMAP
0000
0000
0000
3FE0
20C0
40C0
0180
0180
0300
0300
0600
0600
0C00
0C00
1800
1800
3000
3020
6040
7FC0
0000
0000
0000
0000
ENDCHAR

STARTCHAR C5b
ENCODING 91
SWIDTH 500 0
DWIDTH 12 0
BBX 12 24 0 -4
BITMAP
0000
03C0
0200
0200
0200
0200
0200
0200
0200
0200
0200
0200
0200
0200
0200
0200
0200
0200
0200
0200
0200
0200
03C0
0000
ENDCHAR

STARTCHAR C5c
ENCODING 92
SWIDTH 500 0
DWIDTH 12 0
BBX 12 24 0 -4
BITMAP
0000
4000
4000
2000
2000
1000
1000
0800
0800
0800
0400
0400
0200
0200
0100
0100
0100
0080
0080
0040
0040
0020
0020
0000
ENDCHAR

STARTCHAR C5d
ENCODING 93
SWIDTH 500 0
DWIDTH 12 0
BBX 12 24 0 -4
BITMAP
0000
3C00
0400
0400
0400
0400
0400
0400
0400
0400
0400
0400
0400
0400
0400
0400
0400
0400
0400
0400
0400
0400
3C00
0000
ENDCHAR

STARTCHAR C5e
ENCODING 94
SWIDTH 500 0
DWIDTH 12 0
BBX 12 24 0 -4
BITMAP
0000
0400
0A00
1100
2080
4040
0000
0000
0000
0000
0000
0000
0000
0000
0000
0000
0000
0000
0000
0000
0000
0000
0000
0000
ENDCHAR

STARTCHAR C5f
ENCODING 95
SWIDTH 500 0
DWIDTH 12 0
BBX 12 24 0 -4
BITMAP
0000
0000
0000
0000
0000
0000
0000
0000
0000
0000
0000
0000
0000
0000
0000
0000
0000
0000
0000
0000
0000
0000
7FE0
0000
ENDCHAR

STARTCHAR C60
ENCODING 96
SWIDTH 500 0
DWIDTH 12 0
BBX 12 24 0 -4
BITMAP
0000
3800
1C00
0E00
0300
0080
0000
0000
0000
0000
0000
0000
0000
0000
0000
0000
0000
0000
0000
0000
0000
0000
0000
0000
ENDCHAR

STARTCHAR C61
ENCODING 97
SWIDTH 500 0
DWIDTH 12 0
BBX 12 24 0 -4
BITMAP
0000
0000
0000
0000
0000
0000
0000
0000
1E00
2100
6180
6180
0180
0780
1980
3180
6180
6180
63A0
3CC0
0000
0000
0000
0000
ENDCHAR

STARTCHAR C62
ENCODING 98
SWIDTH 500 0
DWIDTH 12 0
BBX 12 24 0 -4
BITMAP
0000
0000
0000
1000
7000
3000
3000
3000
3700
38C0
3040
3060
3060
3060
3060
3060
3060
3040
38C0
2700
0000
0000
0000
0000
ENDCHAR

STARTCHAR C63
ENCODING 99
SWIDTH 500 0
DWIDTH 12 0
BBX 12 24 0 -4
BITMAP
0000
0000
0000
0000
0000
0000
0000
0000
0E00
3180
20C0
60C0
6000
6000
6000
6000
6000
2040
3080
0F00
0000
0000
0000
0000
ENDCHAR

STARTCHAR C64
ENCODING 100
SWIDTH 500 0
DWIDTH 12 0
BBX 12 24 0 -4
BITMAP
0000
0000
0000
0040
01C0
00C0
00C0
00C0
0EC0
31C0
20C0
60C0
60C0
60C0
60C0
60C0
60C0
20C0
31C0
0E60
0000
0000
0000
0000
ENDCHAR

STARTCHAR C65
ENCODING 101
SWIDTH 500 0
DWIDTH 12 0
BBX 12 24 0 -4
BITMAP
0000
0000
0000
0000
0000
0000
0000
0000
0E00
3180
2080
60C0
60C0
7FC0
6000
6000
6000
2040
3080
0F00
0000
0000
0000
0000
ENDCHAR

STARTCHAR C66
ENCODING 102
SWIDTH 500 0
DWIDTH 12 0
BBX 12 24 0 -4
BITMAP
0000
0000
0000
0380
04C0
04C0
0C00
0C00
0C00
3F80
0C00
0C00
0C00
0C00
0C00
0C00
0C00
0C00
0C00
3F00
0000
0000
0000
0000
ENDCHAR

STARTCHAR C67
ENCODING 103
SWIDTH 500 0
DWIDTH 12 0
BBX 12 24 0 -4
BITMAP
0000
0000
0000
0000
0000
0000
0000
0040
0EA0
1180
3180
3180
3180
1100
0E00
1000
3000
1F00
27C0
6060
6060
30C0
0F00
0000
ENDCHAR

STARTCHAR C68
ENCODING 104
SWIDTH 500 0
DWIDTH 12 0
BBX 12 24 0 -4
BITMAP
0000
0000
0000
1000
7000
3000
3000
3000
3700
3880
30C0
30C0
30C0
30C0
30C0
30C0
30C0
30C0
30C0
79E0
0000
0000
0000
0000
ENDCHAR

STARTCHAR C69
ENCODING 105
SWIDTH 500 0
DWIDTH 12 0
BBX 12 24 0 -4
BITMAP
0000
0000
0000
0600
0600
0000
0000
0000
1E00
0600
0600
0600
0600
0600
0600
0600
0600
0600
0600
3FC0
0000
0000
0000
0000
ENDCHAR

STARTCHAR C6a
ENCODING 106
SWIDTH 500 0
DWIDTH 12 0
BBX 12 24 0 -4
BITMAP
0000
0000
0000
0180
0180
0000
0000
0000
0780
0180
0180
0180
0180
0180
0180
0180
0180
0180
0180
0180
3100
3300
1C00
0000
ENDCHAR

STARTCHAR C6b
ENCODING 107
SWIDTH 500 0
DWIDTH 12 0
BBX 12 24 0 -4
BITMAP
0000
0000
0000
1000
7000
3000
3000
3000
31E0
3080
3100
3200
3600
3B00
3300
3180
3180
30C0
30C0
79E0
0000
0000
0000
0000
ENDCHAR

STARTCHAR C6c
ENCODING 108
SWIDTH 500 0
DWIDTH 12 0
BBX 12 24 0 -4
BITMAP
0000
0000
0000
1E00
0600
0600
0600
0600
0600
0600
0600
0600
0600
0600
0600
0600
0600
0600
0600
1F80
0000
0000
0000
0000
ENDCHAR

STARTCHAR C6d
ENCODING 109
SWIDTH 500 0
DWIDTH 12 0
BBX 12 24 0 -4
BITMAP
0000
0000
0000
0000
0000
0000
0000
0000
6CC0
7760
6660
6660
6660
6660
6660
6660
6660
6660
6660
6660
0000
0000
0000
0000
ENDCHAR

STARTCHAR C6e
ENCODING 110
SWIDTH 500 0
DWIDTH 12 0
BBX 12 24 0 -4
BITMAP
0000
0000
0000
0000
0000
0000
0000
0000
3700
7880
30C0
30C0
30C0
30C0
30C0
30C0
30C0
30C0
30C0
79E0
0000
0000
0000
0000
ENDCHAR

STARTCHAR C6f
ENCODING 111
SWIDTH 500 0
DWIDTH 12 0
BBX 12 24 0 -4
BITMAP
0000
0000
0000
0000
0000
0000
0000
0000
0F00
30C0
2040
6060
6060
6060
6060
6060
6060
2040
30C0
0F00
0000
0000
0000
0000
ENDCHAR

STARTCHAR C70
ENCODING 112
SWIDTH 500 0
DWIDTH 12 0
BBX 12 24 0 -4
BITMAP
0000
0000
0000
0000
0000
0000
0000
0000
1700
78C0
3040
3060
3060
3060
3060
3060
3060
3040
38C0
3700
3000
3000
7800
0000
ENDCHAR

STARTCHAR C71
ENCODING 113
SWIDTH 500 0
DWIDTH 12 0
BBX 12 24 0 -4
BITMAP
0000
0000
0000
0000
0000
0000
0000
0000
0E40
31C0
20C0
60C0
60C0
60C0
60C0
60C0
60C0
20C0
31C0
0EC0
00C0
00C0
01E0
0000
ENDCHAR

STARTCHAR C72
ENCODING 114
SWIDTH 500 0
DWIDTH 12 0
BBX 12 24 0 -4
BITMAP
0000
0000
0000
0000
0000
0000
0000
0000
1380
77C0
38C0
3000
3000
3000
3000
3000
3000
3000
3000
7800
0000
0000
0000
0000
ENDCHAR

STARTCHAR C73
ENCODING 115
SWIDTH 500 0
DWIDTH 12 0
BBX 12 24 0 -4
BITMAP
0000
0000
0000
0000
0000
0000
0000
0000
0F40
10C0
3040
3000
3800
1E00
0780
01C0
00C0
20C0
3080
2F00
0000
0000
0000
0000
ENDCHAR

STARTCHAR C74
ENCODING 116
SWIDTH 500 0
DWIDTH 12 0
BBX 12 24 0 -4
BITMAP
0000
0000
0000
0000
0000
0C00
0C00
0C00
0C00
3F80
0C00
0C00
0C00
0C00
0C00
0C00
0C00
0C40
0480
0300
0000
0000
0000
0000
ENDCHAR

STARTCHAR C75
ENCODING 117
SWIDTH 500 0
DWIDTH 12 0
BBX 12 24 0 -4
BITMAP
0000
0000
0000
0000
0000
0000
0000
0000
1040
71C0
30C0
30C0
30C0
30C0
30C0
30C0
30C0
30C0
11C0
0E60
0000
0000
0000
0000
ENDCHAR

STARTCHAR C76
ENCODING 118
SWIDTH 500 0
DWIDTH 12 0
BBX 12 24 0 -4
BITMAP
0000
0000
0000
0000
0000
0000
0000
0000
78E0
3040
3040
3040
1880
1880
1880
0D00
0D00
0D00
0600
0600
0000
0000
0000
0000
ENDCHAR

STARTCHAR C77
ENCODING 119
SWIDTH 500 0
DWIDTH 12 0
BBX 12 24 0 -4
BITMAP
0000
0000
0000
0000
0000
0000
0000
0000
6620
6620
6620
6620
6620
6B40
6B40
6B40
3180
3180
3180
3180
0000
0000
0000
0000
ENDCHAR

STARTCHAR C78
ENCODING 120
SWIDTH 500 0
DWIDTH 12 0
BBX 12 24 0 -4
BITMAP
0000
0000
0000
0000
0000
0000
0000
0000
79C0
3080
3080
1900
0D00
0600
0600
0B00
1180
10C0
20C0
71E0
0000
0000
0000
0000
ENDCHAR

STARTCHAR C79
ENCODING 121
SWIDTH 500 0
DWIDTH 12 0
BBX 12 24 0 -4
BITMAP
0000
0000
0000
0000
0000
0000
0000
0000
78E0
3040
3040
3040
1880
1880
1880
0D00
0D00
0D00
0600
0600
6400
6400
3800
0000
ENDCHAR

STARTCHAR C7a
ENCODING 122
SWIDTH 500 0
DWIDTH 12 0
BBX 12 24 0 -4
BITMAP
0000
0000
0000
0000
0000
0000
0000
0000
3FC0
20C0
4180
0300
0300
0600
0C00
1800
1800
3040
6080
7F80
0000
0000
0000
0000
ENDCHAR

STARTCHAR C7b
ENCODING 123
SWIDTH 500 0
DWIDTH 12 0
BBX 12 24 0 -4
BITMAP
0000
0040
0080
0080
0080
0080
0080
0080
0180
0100
0100
0200
0100
0100
0180
0080
0080
0080
0080
0080
0080
0080
0040
0000
ENDCHAR

STARTCHAR C7c
ENCODING 124
SWIDTH 500 0
DWIDTH 12 0
BBX 12 24 0 -4
BITMAP
0000
0400
0400
0400
0400
0400
0400
0400
0400
0400
0400
0400
0400
0400
0400
0400
0400
0400
0400
0400
0400
0400
0400
0000
ENDCHAR

STARTCHAR C7d
ENCODING 125
SWIDTH 500 0
DWIDTH 12 0
BBX 12 24 0 -4
BITMAP
0000
2000
1000
1000
1000
1000
1000
1000
1800
0800
0800
0400
0800
0800
1800
1000
1000
1000
1000
1000
1000
1000
2000
0000
ENDCHAR

STARTCHAR C7e
ENCODING 126
SWIDTH 500 0
DWIDTH 12 0
BBX 12 24 0 -4
BITMAP
0000
0C80
1300
0000
0000
0000
0000
0000
0000
0000
0000
0000
0000
0000
0000
0000
0000
0000
0000
0000
0000
0000
0000
0000
ENDCHAR

STARTCHAR C7f
ENCODING 127
SWIDTH 500 0
DWIDTH 12 0
BBX 12 24 0 -4
BITMAP
0000
0000
0000
0000
0000
0000
0000
0000
0000
0000
0000
0000
0000
0000
0000
0000
0000
0000
0000
0000
0000
0000
0000
0000
ENDCHAR

STARTCHAR C80
ENCODING 128
SWIDTH 500 0
DWIDTH 12 0
BBX 12 24 0 -4
BITMAP
0000
0000
0000
0000
0000
0000
0000
0000
0000
0000
0000
0000
0000
0000
0000
0000
0000
0000
0000
0000
0000
0000
0000
0000
ENDCHAR

STARTCHAR C81
ENCODING 129
SWIDTH 500 0
DWIDTH 12 0
BBX 12 24 0 -4
BITMAP
0000
0000
0000
0000
0000
0000
0000
0000
0000
0000
0000
0000
0000
0000
0000
0000
0000
0000
0000
0000
0000
0000
0000
0000
ENDCHAR

STARTCHAR C82
ENCODING 130
SWIDTH 500 0
DWIDTH 12 0
BBX 12 24 0 -4
BITMAP
0000
0000
0000
0600
0600
0600
0600
0600
0600
0600
0000
0000
0000
0600
0600
0600
0600
0600
0600
0600
0000
0000
0000
0000
ENDCHAR

STARTCHAR C83
ENCODING 131
SWIDTH 500 0
DWIDTH 12 0
BBX 12 24 0 -4
BITMAP
0000
1980
1980
0000
0000
0000
0000
0000
0000
0000
0000
0000
0000
0000
0000
0000
0000
0000
0000
0000
0000
0000
0000
0000
ENDCHAR

STARTCHAR C84
ENCODING 132
SWIDTH 500 0
DWIDTH 12 0
BBX 12 24 0 -4
BITMAP
0000
0000
0000
0000
0000
0000
0000
0000
0000
0000
7FE0
0020
0020
0020
0020
0000
0000
0000
0000
0000
0000
0000
0000
0000
ENDCHAR

STARTCHAR C85
ENCODING 133
SWIDTH 500 0
DWIDTH 12 0
BBX 12 24 0 -4
BITMAP
0000
0000
0000
0000
0000
0000
0000
0000
0000
0000
0000
3FC0
0000
0000
0000
0000
0000
0000
0000
0000
0000
0000
0000
0000
ENDCHAR

STARTCHAR C86
ENCODING 134
SWIDTH 500 0
DWIDTH 12 0
BBX 12 24 0 -4
BITMAP
0000
0000
0000
0F00
1080
2040
4020
5F20
59A0
59A0
59A0
5F20
5A20
5920
59A0
59A0
4020
2040
1080
0F00
0000
0000
0000
0000
ENDCHAR

STARTCHAR C87
ENCODING 135
SWIDTH 500 0
DWIDTH 12 0
BBX 12 24 0 -4
BITMAP
0000
7FE0
0000
0000
0000
0000
0000
0000
0000
0000
0000
0000
0000
0000
0000
0000
0000
0000
0000
0000
0000
0000
0000
0000
ENDCHAR

STARTCHAR C88
ENCODING 136
SWIDTH 500 0
DWIDTH 12 0
BBX 12 24 0 -4
BITMAP
0000
0300
1F80
0000
0000
0000
0000
0000
0000
0000
0000
0000
0000
0000
0000
0000
0000
0000
0000
0000
0000
0000
0000
0000
ENDCHAR

STARTCHAR C89
ENCODING 137
SWIDTH 500 0
DWIDTH 12 0
BBX 12 24 0 -4
BITMAP
0000
0000
0000
0000
0000
0000
0000
0000
0000
0000
0000
0000
0000
0000
0000
0000
0000
0000
0000
0200
0300
0080
0F00
0000
ENDCHAR

STARTCHAR C8a
ENCODING 138
SWIDTH 500 0
DWIDTH 12 0
BBX 12 24 0 -4
BITMAP
0000
0000
0000
3020
4820
0840
3040
0880
4900
3100
0200
0400
0400
0840
08C0
1140
2240
23E0
4040
4040
0000
0000
0000
0000
ENDCHAR

STARTCHAR C8b
ENCODING 139
SWIDTH 500 0
DWIDTH 12 0
BBX 12 24 0 -4
BITMAP
0000
0000
0000
7E00
3180
3080
30C0
3040
3060
3060
3060
7E60
3060
3060
3060
3040
30C0
3080
3180
7E00
0000
0000
0000
0000
ENDCHAR

STARTCHAR C8c
ENCODING 140
SWIDTH 500 0
DWIDTH 12 0
BBX 12 24 0 -4
BITMAP
0000
0000
0000
0000
0000
0000
4020
6060
30C0
1980
0D00
0600
0600
0B00
1980
30C0
6060
4020
0000
0000
0000
0000
0000
0000
ENDCHAR

STARTCHAR C8d
ENCODING 141
SWIDTH 500 0
DWIDTH 12 0
BBX 12 24 0 -4
BITMAP
0000
0300
1F80
0000
78E0
3040
3040
1880
1880
1880
0D00
0D00
0D00
0600
0600
0600
0600
0600
0600
0F00
0000
0000
0000
0000
ENDCHAR

STARTCHAR C8e
ENCODING 142
SWIDTH 500 0
DWIDTH 12 0
BBX 12 24 0 -4
BITMAP
0000
0000
0000
7800
3000
3000
3F00
30C0
3060
3060
3060
3060
3060
30C0
3F00
3000
3000
3000
3000
7800
0000
0000
0000
0000
ENDCHAR

STARTCHAR C8f
ENCODING 143
SWIDTH 500 0
DWIDTH 12 0
BBX 12 24 0 -4
BITMAP
0000
0000
0000
0000
0000
4100
3200
0C00
0B00
1180
00C0
00C0
0FE0
3060
6060
6060
6060
6060
30C0
0F00
0000
0000
0000
0000
ENDCHAR

STARTCHAR C90
ENCODING 144
SWIDTH 500 0
DWIDTH 12 0
BBX 12 24 0 -4
BITMAP
0000
0000
0000
0000
0000
0600
0600
0000
0000
0000
0000
3FC0
0000
0000
0000
0000
0600
0600
0000
0000
0000
0000
0000
0000
ENDCHAR

STARTCHAR C91
ENCODING 145
SWIDTH 500 0
DWIDTH 12 0
BBX 12 24 0 -4
BITMAP
0000
0000
0000
0000
0000
0300
1F80
0000
78E0
3040
3040
3040
1880
1880
1880
0D00
0D00
0D00
0600
0600
6400
6400
3800
0000
ENDCHAR

STARTCHAR C92
ENCODING 146
SWIDTH 500 0
DWIDTH 12 0
BBX 12 24 0 -4
BITMAP
0000
0000
0000
0000
0000
0000
0000
0000
3000
3000
3F00
30C0
3060
3060
3060
3060
30C0
3F00
3000
3000
3000
3000
3000
0000
ENDCHAR

STARTCHAR C93
ENCODING 147
SWIDTH 500 0
DWIDTH 12 0
BBX 12 24 0 -4
BITMAP
0000
0000
0000
0000
0000
1980
1980
0000
78E0
3040
3040
3040
1880
1880
1880
0D00
0D00
0D00
0600
0600
6400
6400
3800
0000
ENDCHAR

STARTCHAR C94
ENCODING 148
SWIDTH 500 0
DWIDTH 12 0
BBX 12 24 0 -4
BITMAP
0000
0000
0000
0000
0000
0000
0000
0000
0000
0000
0000
0000
0000
0000
0000
0000
0000
0000
0000
0000
0000
0000
0000
0000
ENDCHAR

STARTCHAR C95
ENCODING 149
SWIDTH 500 0
DWIDTH 12 0
BBX 12 24 0 -4
BITMAP
0000
0000
0000
0000
0000
0000
0000
0000
0000
0000
0000
0000
0000
0000
0000
0000
0000
0000
0000
0000
0000
0000
0000
0000
ENDCHAR

STARTCHAR C96
ENCODING 150
SWIDTH 500 0
DWIDTH 12 0
BBX 12 24 0 -4
BITMAP
0000
0000
0000
0000
0000
0000
0000
0000
0000
0000
0000
0000
0000
0000
0000
0000
0000
0000
0000
0000
0000
0000
0000
0000
ENDCHAR

STARTCHAR C97
ENCODING 151
SWIDTH 500 0
DWIDTH 12 0
BBX 12 24 0 -4
BITMAP
0000
0000
0000
0000
0000
0000
0000
0000
0000
0000
0000
0000
0000
0000
0000
0000
0000
0000
0000
0000
0000
0000
0000
0000
ENDCHAR

STARTCHAR C98
ENCODING 152
SWIDTH 500 0
DWIDTH 12 0
BBX 12 24 0 -4
BITMAP
0000
0000
0000
0000
0000
0000
0000
0000
0000
0000
0000
0000
0000
0000
0000
0000
0000
0000
0000
0000
0000
0000
0000
0000
ENDCHAR

STARTCHAR C99
ENCODING 153
SWIDTH 500 0
DWIDTH 12 0
BBX 12 24 0 -4
BITMAP
0000
0000
0000
0000
0000
0000
0000
0000
0000
0000
0000
0000
0000
0000
0000
0000
0000
0000
0000
0000
0000
0000
0000
0000
ENDCHAR

STARTCHAR C9a
ENCODING 154
SWIDTH 500 0
DWIDTH 12 0
BBX 12 24 0 -4
BITMAP
0000
0000
0000
0000
0000
0000
0000
0000
0000
0000
0000
0000
0000
0000
0000
0000
0000
0000
0000
0000
0000
0000
0000
0000
ENDCHAR

STARTCHAR C9b
ENCODING 155
SWIDTH 500 0
DWIDTH 12 0
BBX 12 24 0 -4
BITMAP
0000
0000
0000
0000
0000
0000
0000
0000
0000
0000
0000
0000
0000
0000
0000
0000
0000
0000
0000
0000
0000
0000
0000
0000
ENDCHAR

STARTCHAR C9c
ENCODING 156
SWIDTH 500 0
DWIDTH 12 0
BBX 12 24 0 -4
BITMAP
0000
0000
0000
0000
0000
0000
0000
0000
0000
0000
0000
0000
0000
0000
0000
0000
0000
0000
0000
0000
0000
0000
0000
0000
ENDCHAR

STARTCHAR C9d
ENCODING 157
SWIDTH 500 0
DWIDTH 12 0
BBX 12 24 0 -4
BITMAP
0000
0000
0000
0000
0000
0000
0000
0000
0000
0000
0000
0000
0000
0000
0000
0000
0000
0000
0000
0000
0000
0000
0000
0000
ENDCHAR

STARTCHAR C9e
ENCODING 158
SWIDTH 500 0
DWIDTH 12 0
BBX 12 24 0 -4
BITMAP
0000
0000
0000
0000
0000
0000
0000
0000
0000
0000
0000
0000
0000
0000
0000
0000
0000
0000
0000
0000
0000
0000
0000
0000
ENDCHAR

STARTCHAR C9f
ENCODING 159
SWIDTH 500 0
DWIDTH 12 0
BBX 12 24 0 -4
BITMAP
0000
0000
0000
0000
0000
0000
0000
0000
0000
0000
0000
0000
0000
0000
0000
0000
0000
0000
0000
0000
0000
0000
0000
0000
ENDCHAR

STARTCHAR Ca0
ENCODING 160
SWIDTH 500 0
DWIDTH 12 0
BBX 12 24 0 -4
BITMAP
0000
0000
0000
0000
0000
0000
0000
0000
0000
0000
0000
0000
0000
0000
0000
0000
0000
0000
0000
0000
0000
0000
0000
0000
ENDCHAR

STARTCHAR Ca1
ENCODING 161
SWIDTH 500 0
DWIDTH 12 0
BBX 12 24 0 -4
BITMAP
0000
0000
0400
0E00
0400
0000
0000
0400
0400
0400
0400
0400
0E00
0E00
0E00
0E00
0E00
0E00
0E00
0400
0000
0000
0000
0000
ENDCHAR

STARTCHAR Ca2
ENCODING 162
SWIDTH 500 0
DWIDTH 12 0
BBX 12 24 0 -4
BITMAP
0000
0000
0000
0000
0000
0000
0100
0100
0F00
3180
22C0
62C0
6200
6400
6400
6400
6800
2840
3880
0F00
1000
1000
0000
0000
ENDCHAR

STARTCHAR Ca3
ENCODING 163
SWIDTH 500 0
DWIDTH 12 0
BBX 12 24 0 -4
BITMAP
0000
0000
0000
0380
0440
0C60
0C60
0C00
0C00
0C00
0C00
7F80
0C00
0C00
0C00
0C00
0C00
3C20
4A20
31C0
0000
0000
0000
0000
ENDCHAR

STARTCHAR Ca4
ENCODING 164
SWIDTH 500 0
DWIDTH 12 0
BBX 12 24 0 -4
BITMAP
0000
0000
0000
0000
0000
0000
0000
0000
0000
0000
0000
0000
0000
0000
0000
0000
0000
0000
0000
0000
0000
0000
0000
0000
ENDCHAR

STARTCHAR Ca5
ENCODING 165
SWIDTH 500 0
DWIDTH 12 0
BBX 12 24 0 -4
BITMAP
0000
0000
0000
78E0
3040
3040
3040
1880
7FE0
1880
0D00
0D00
7FE0
0600
0600
0600
0600
0600
0600
0F00
0000
0000
0000
0000
ENDCHAR

STARTCHAR Ca6
ENCODING 166
SWIDTH 500 0
DWIDTH 12 0
BBX 12 24 0 -4
BITMAP
0000
0000
0000
0000
0000
0000
0000
0000
0000
0000
0000
0000
0000
0000
0000
0000
0000
0000
0000
0000
0000
0000
0000
0000
ENDCHAR

STARTCHAR Ca7
ENCODING 167
SWIDTH 500 0
DWIDTH 12 0
BBX 12 24 0 -4
BITMAP
0000
0000
0000
0F00
30C0
6060
6060
3800
0F00
31C0
4060
4020
6020
38C0
0F00
01C0
6060
6060
30C0
0F00
0000
0000
0000
0000
ENDCHAR

STARTCHAR Ca8
ENCODING 168
SWIDTH 500 0
DWIDTH 12 0
BBX 12 24 0 -4
BITMAP
0000
0000
0000
0000
0000
0000
0000
4040
2E80
1100
2080
2080
2080
1100
2E80
4040
0000
0000
0000
0000
0000
0000
0000
0000
ENDCHAR

STARTCHAR Ca9
ENCODING 169
SWIDTH 500 0
DWIDTH 12 0
BBX 12 24 0 -4
BITMAP
0000
0000
0000
0F00
1080
2040
4020
4720
48A0
5820
5820
5820
5820
5820
48A0
4720
4020
2040
1080
0F00
0000
0000
0000
0000
ENDCHAR

STARTCHAR Caa
ENCODING 170
SWIDTH 500 0
DWIDTH 12 0
BBX 12 24 0 -4
BITMAP
0000
0000
0000
1E00
2100
6180
6180
0780
1980
3180
6180
6180
63A0
3CC0
0000
7FE0
0000
0000
0000
0000
0000
0000
0000
0000
ENDCHAR

STARTCHAR Cab
ENCODING 171
SWIDTH 500 0
DWIDTH 12 0
BBX 12 24 0 -4
BITMAP
0000
0000
0000
0440
0440
0880
0880
1100
1100
2200
2200
4400
2200
2200
1100
1100
0880
0880
0440
0440
0000
0000
0000
0000
ENDCHAR

STARTCHAR Cac
ENCODING 172
SWIDTH 500 0
DWIDTH 12 0
BBX 12 24 0 -4
BITMAP
0000
0000
0000
0000
0000
0000
0000
0000
0000
0000
0000
0000
0000
0000
0000
0000
0000
0000
0000
0000
0000
0000
0000
0000
ENDCHAR

STARTCHAR Cad
ENCODING 173
SWIDTH 500 0
DWIDTH 12 0
BBX 12 24 0 -4
BITMAP
0000
0000
0000
0000
0000
0000
0000
0000
0000
0000
0000
0000
0000
0000
0000
0000
0000
0000
0000
0000
0000
0000
0000
0000
ENDCHAR

STARTCHAR Cae
ENCODING 174
SWIDTH 500 0
DWIDTH 12 0
BBX 12 24 0 -4
BITMAP
0000
0000
0000
0000
0000
0000
0000
0000
0000
0000
0000
0000
0000
0000
0000
0000
0000
0000
0000
0000
0000
0000
0000
0000
ENDCHAR

STARTCHAR Caf
ENCODING 175
SWIDTH 500 0
DWIDTH 12 0
BBX 12 24 0 -4
BITMAP
0000
0000
0000
0000
0000
0000
0000
0000
0000
0000
0000
0000
0000
0000
0000
0000
0000
0000
0000
0000
0000
0000
0000
0000
ENDCHAR

STARTCHAR Cb0
ENCODING 176
SWIDTH 500 0
DWIDTH 12 0
BBX 12 24 0 -4
BITMAP
0000
0E00
1100
1100
1100
0E00
0000
0000
0000
0000
0000
0000
0000
0000
0000
0000
0000
0000
0000
0000
0000
0000
0000
0000
ENDCHAR

STARTCHAR Cb1
ENCODING 177
SWIDTH 500 0
DWIDTH 12 0
BBX 12 24 0 -4
BITMAP
0000
0000
0000
0000
0400
0400
0400
0400
0400
0400
3FC0
0400
0400
0400
0400
0400
0400
0000
0000
3FC0
0000
0000
0000
0000
ENDCHAR

STARTCHAR Cb2
ENCODING 178
SWIDTH 500 0
DWIDTH 12 0
BBX 12 24 0 -4
BITMAP
0000
3000
4800
4800
1000
2000
4800
7800
0000
0000
0000
0000
0000
0000
0000
0000
0000
0000
0000
0000
0000
0000
0000
0000
ENDCHAR

STARTCHAR Cb3
ENCODING 179
SWIDTH 500 0
DWIDTH 12 0
BBX 12 24 0 -4
BITMAP
0000
3000
4800
0800
3000
0800
4800
3000
0000
0000
0000
0000
0000
0000
0000
0000
0000
0000
0000
0000
0000
0000
0000
0000
ENDCHAR

STARTCHAR Cb4
ENCODING 180
SWIDTH 500 0
DWIDTH 12 0
BBX 12 24 0 -4
BITMAP
0000
0000
0000
0000
0000
0000
0000
0000
0000
0000
0000
0000
0000
0000
0000
0000
0000
0000
0000
0000
0000
0000
0000
0000
ENDCHAR

STARTCHAR Cb5
ENCODING 181
SWIDTH 500 0
DWIDTH 12 0
BBX 12 24 0 -4
BITMAP
0000
0000
0000
0000
0000
0000
0000
0000
0C60
0C60
0C60
0C60
0840
0840
18C0
18C0
1080
1080
31A0
2E60
2000
6000
6000
0000
ENDCHAR

STARTCHAR Cb6
ENCODING 182
SWIDTH 500 0
DWIDTH 12 0
BBX 12 24 0 -4
BITMAP
0000
0000
0000
0FE0
36C0
26C0
66C0
66C0
66C0
26C0
36C0
0EC0
06C0
06C0
06C0
06C0
06C0
06C0
06C0
06C0
0000
0000
0000
0000
ENDCHAR

STARTCHAR Cb7
ENCODING 183
SWIDTH 500 0
DWIDTH 12 0
BBX 12 24 0 -4
BITMAP
0000
0000
0000
0000
0000
0000
0000
0000
0000
0000
0600
0F00
0F00
0600
0000
0000
0000
0000
0000
0000
0000
0000
0000
0000
ENDCHAR

STARTCHAR Cb8
ENCODING 184
SWIDTH 500 0
DWIDTH 12 0
BBX 12 24 0 -4
BITMAP
0000
0000
0000
0000
0000
0000
0000
0000
0000
0000
0000
0000
0000
0000
0000
0000
0000
0000
0000
0000
0000
0000
0000
0000
ENDCHAR

STARTCHAR Cb9
ENCODING 185
SWIDTH 500 0
DWIDTH 12 0
BBX 12 24 0 -4
BITMAP
0000
2000
6000
2000
2000
2000
2000
7000
0000
0000
0000
0000
0000
0000
0000
0000
0000
0000
0000
0000
0000
0000
0000
0000
ENDCHAR

STARTCHAR Cba
ENCODING 186
SWIDTH 500 0
DWIDTH 12 0
BBX 12 24 0 -4
BITMAP
0000
0000
0000
0F00
30C0
2040
6060
6060
6060
6060
6060
2040
30C0
0F00
0000
7FE0
0000
0000
0000
0000
0000
0000
0000
0000
ENDCHAR

STARTCHAR Cbb
ENCODING 187
SWIDTH 500 0
DWIDTH 12 0
BBX 12 24 0 -4
BITMAP
0000
0000
0000
4400
4400
2200
2200
1100
1100
0880
0880
0440
0880
0880
1100
1100
2200
2200
4400
4400
0000
0000
0000
0000
ENDCHAR

STARTCHAR Cbc
ENCODING 188
SWIDTH 500 0
DWIDTH 12 0
BBX 12 24 0 -4
BITMAP
0000
0000
0000
1020
3020
1040
1040
1080
1100
3900
0200
0400
0400
0840
08C0
1140
2240
23E0
4040
4040
0000
0000
0000
0000
ENDCHAR

STARTCHAR Cbd
ENCODING 189
SWIDTH 500 0
DWIDTH 12 0
BBX 12 24 0 -4
BITMAP
0000
0000
0000
1020
3020
1040
1040
1080
1100
3900
0200
0400
0400
08C0
0920
1120
2040
2080
4120
41E0
0000
0000
0000
0000
ENDCHAR

STARTCHAR Cbe
ENCODING 190
SWIDTH 500 0
DWIDTH 12 0
BBX 12 24 0 -4
BITMAP
0000
0000
0000
0000
0000
0000
0000
0000
0000
0000
0000
0000
0000
0000
0000
0000
0000
0000
0000
0000
0000
0000
0000
0000
ENDCHAR

STARTCHAR Cbf
ENCODING 191
SWIDTH 500 0
DWIDTH 12 0
BBX 12 24 0 -4
BITMAP
0000
0000
0000
0400
0E00
0400
0000
0000
0400
0400
0400
0C00
1800
3000
60C0
60E0
6060
6060
30C0
0F00
0000
0000
0000
0000
ENDCHAR

STARTCHAR Cc0
ENCODING 192
SWIDTH 500 0
DWIDTH 12 0
BBX 12 24 0 -4
BITMAP
0000
0C00
1F80
0000
0600
0600
0600
0B00
0B00
0B00
0B00
1180
1180
1180
1F80
20C0
20C0
20C0
20C0
71E0
0000
0000
0000
0000
ENDCHAR

STARTCHAR Cc1
ENCODING 193
SWIDTH 500 0
DWIDTH 12 0
BBX 12 24 0 -4
BITMAP
0000
0300
1F80
0000
0600
0600
0600
0B00
0B00
0B00
0B00
1180
1180
1180
1F80
20C0
20C0
20C0
20C0
71E0
0000
0000
0000
0000
ENDCHAR

STARTCHAR Cc2
ENCODING 194
SWIDTH 500 0
DWIDTH 12 0
BBX 12 24 0 -4
BITMAP
0000
0600
1980
0000
0600
0600
0600
0B00
0B00
0B00
0B00
1180
1180
1180
1F80
20C0
20C0
20C0
20C0
71E0
0000
0000
0000
0000
ENDCHAR

STARTCHAR Cc3
ENCODING 195
SWIDTH 500 0
DWIDTH 12 0
BBX 12 24 0 -4
BITMAP
0000
0C80
1300
0000
0600
0600
0600
0B00
0B00
0B00
0B00
1180
1180
1180
1F80
20C0
20C0
20C0
20C0
71E0
0000
0000
0000
0000
ENDCHAR

STARTCHAR Cc4
ENCODING 196
SWIDTH 500 0
DWIDTH 12 0
BBX 12 24 0 -4
BITMAP
0000
1980
1980
0000
0600
0600
0600
0B00
0B00
0B00
0B00
1180
1180
1180
1F80
20C0
20C0
20C0
20C0
71E0
0000
0000
0000
0000
ENDCHAR

STARTCHAR Cc5
ENCODING 197
SWIDTH 500 0
DWIDTH 12 0
BBX 12 24 0 -4
BITMAP
0000
0600
0900
0600
0000
0600
0600
0600
0B00
0B00
0B00
1180
1180
1180
1F80
20C0
20C0
20C0
20C0
71E0
0000
0000
0000
0000
ENDCHAR

STARTCHAR Cc6
ENCODING 198
SWIDTH 500 0
DWIDTH 12 0
BBX 12 24 0 -4
BITMAP
0000
0000
0000
07E0
0720
0720
0700
0B00
0B00
0B40
0B40
13C0
1340
1340
1F00
2300
2300
2320
2320
73E0
0000
0000
0000
0000
ENDCHAR

STARTCHAR Cc7
ENCODING 199
SWIDTH 500 0
DWIDTH 12 0
BBX 12 24 0 -4
BITMAP
0000
0000
0000
0720
18A0
1060
3020
2020
6000
6000
6000
6000
6000
6000
2000
3020
1020
1840
0780
0100
0180
0040
0780
0000
ENDCHAR

STARTCHAR Cc8
ENCODING 200
SWIDTH 500 0
DWIDTH 12 0
BBX 12 24 0 -4
BITMAP
0000
0C00
1F80
0000
7FC0
3040
3020
3000
3000
3100
3100
3F00
3100
3100
3000
3000
3000
3020
3040
7FC0
0000
0000
0000
0000
ENDCHAR

STARTCHAR Cc9
ENCODING 201
SWIDTH 500 0
DWIDTH 12 0
BBX 12 24 0 -4
BITMAP
0000
0300
1F80
0000
7FC0
3040
3020
3000
3000
3100
3100
3F00
3100
3100
3000
3000
3000
3020
3040
7FC0
0000
0000
0000
0000
ENDCHAR

STARTCHAR Cca
ENCODING 202
SWIDTH 500 0
DWIDTH 12 0
BBX 12 24 0 -4
BITMAP
0000
0600
1980
0000
7FC0
3040
3020
3000
3000
3100
3100
3F00
3100
3100
3000
3000
3000
3020
3040
7FC0
0000
0000
0000
0000
ENDCHAR

STARTCHAR Ccb
ENCODING 203
SWIDTH 500 0
DWIDTH 12 0
BBX 12 24 0 -4
BITMAP
0000
1980
1980
0000
7FC0
3040
3020
3000
3000
3100
3100
3F00
3100
3100
3000
3000
3000
3020
3040
7FC0
0000
0000
0000
0000
ENDCHAR

STARTCHAR Ccc
ENCODING 204
SWIDTH 500 0
DWIDTH 12 0
BBX 12 24 0 -4
BITMAP
0000
0C00
1F80
0000
1F80
0600
0600
0600
0600
0600
0600
0600
0600
0600
0600
0600
0600
0600
0600
1F80
0000
0000
0000
0000
ENDCHAR

STARTCHAR Ccd
ENCODING 205
SWIDTH 500 0
DWIDTH 12 0
BBX 12 24 0 -4
BITMAP
0000
0300
1F80
0000
1F80
0600
0600
0600
0600
0600
0600
0600
0600
0600
0600
0600
0600
0600
0600
1F80
0000
0000
0000
0000
ENDCHAR

STARTCHAR Cce
ENCODING 206
SWIDTH 500 0
DWIDTH 12 0
BBX 12 24 0 -4
BITMAP
0000
0600
1980
0000
1F80
0600
0600
0600
0600
0600
0600
0600
0600
0600
0600
0600
0600
0600
0600
1F80
0000
0000
0000
0000
ENDCHAR

STARTCHAR Ccf
ENCODING 207
SWIDTH 500 0
DWIDTH 12 0
BBX 12 24 0 -4
BITMAP
0000
1980
1980
0000
1F80
0600
0600
0600
0600
0600
0600
0600
0600
0600
0600
0600
0600
0600
0600
1F80
0000
0000
0000
0000
ENDCHAR

STARTCHAR Cd0
ENCODING 208
SWIDTH 500 0
DWIDTH 12 0
BBX 12 24 0 -4
BITMAP
0000
0000
0000
0000
0000
0000
0000
0000
0000
0000
0000
0000
0000
0000
0000
0000
0000
0000
0000
0000
0000
0000
0000
0000
ENDCHAR

STARTCHAR Cd1
ENCODING 209
SWIDTH 500 0
DWIDTH 12 0
BBX 12 24 0 -4
BITMAP
0000
0C80
1300
0000
70E0
3040
3840
3840
2C40
2C40
2640
2640
2340
2340
21C0
21C0
20C0
20C0
2040
7040
0000
0000
0000
0000
ENDCHAR

STARTCHAR Cd2
ENCODING 210
SWIDTH 500 0
DWIDTH 12 0
BBX 12 24 0 -4
BITMAP
0000
0C00
1F80
0000
0F00
1080
30C0
2040
6060
6060
6060
6060
6060
6060
6060
6060
2040
30C0
1080
0F00
0000
0000
0000
0000
ENDCHAR

STARTCHAR Cd3
ENCODING 211
SWIDTH 500 0
DWIDTH 12 0
BBX 12 24 0 -4
BITMAP
0000
0300
1F80
0000
0F00
1080
30C0
2040
6060
6060
6060
6060
6060
6060
6060
6060
2040
30C0
1080
0F00
0000
0000
0000
0000
ENDCHAR

STARTCHAR Cd4
ENCODING 212
SWIDTH 500 0
DWIDTH 12 0
BBX 12 24 0 -4
BITMAP
0000
0600
1980
0000
0F00
1080
30C0
2040
6060
6060
6060
6060
6060
6060
6060
6060
2040
30C0
1080
0F00
0000
0000
0000
0000
ENDCHAR

STARTCHAR Cd5
ENCODING 213
SWIDTH 500 0
DWIDTH 12 0
BBX 12 24 0 -4
BITMAP
0000
0C80
1300
0000
0F00
1080
30C0
2040
6060
6060
6060
6060
6060
6060
6060
6060
2040
30C0
1080
0F00
0000
0000
0000
0000
ENDCHAR

STARTCHAR Cd6
ENCODING 214
SWIDTH 500 0
DWIDTH 12 0
BBX 12 24 0 -4
BITMAP
0000
1980
1980
0000
0F00
1080
30C0
2040
6060
6060
6060
6060
6060
6060
6060
6060
2040
30C0
1080
0F00
0000
0000
0000
0000
ENDCHAR

STARTCHAR Cd7
ENCODING 215
SWIDTH 500 0
DWIDTH 12 0
BBX 12 24 0 -4
BITMAP
0000
0000
0000
1DE0
2320
2320
2300
6300
6300
6340
6340
63C0
6340
6340
6300
6300
2300
2320
2320
1DE0
0000
0000
0000
0000
ENDCHAR

STARTCHAR Cd8
ENCODING 216
SWIDTH 500 0
DWIDTH 12 0
BBX 12 24 0 -4
BITMAP
0000
0000
0080
0080
0F00
1180
2140
2140
6260
6260
6260
6260
6460
6460
6460
2840
2840
1880
0F00
1000
1000
0000
0000
0000
ENDCHAR

STARTCHAR Cd9
ENCODING 217
SWIDTH 500 0
DWIDTH 12 0
BBX 12 24 0 -4
BITMAP
0000
0C00
1F80
0000
78E0
3040
3040
3040
3040
3040
3040
3040
3040
3040
3040
3040
3040
1040
1880
0700
0000
0000
0000
0000
ENDCHAR

STARTCHAR Cda
ENCODING 218
SWIDTH 500 0
DWIDTH 12 0
BBX 12 24 0 -4
BITMAP
0000
0300
1F80
0000
78E0
3040
3040
3040
3040
3040
3040
3040
3040
3040
3040
3040
3040
1040
1880
0700
0000
0000
0000
0000
ENDCHAR

STARTCHAR Cdb
ENCODING 219
SWIDTH 500 0
DWIDTH 12 0
BBX 12 24 0 -4
BITMAP
0000
0600
1980
0000
78E0
3040
3040
3040
3040
3040
3040
3040
3040
3040
3040
3040
3040
1040
1880
0700
0000
0000
0000
0000
ENDCHAR

STARTCHAR Cdc
ENCODING 220
SWIDTH 500 0
DWIDTH 12 0
BBX 12 24 0 -4
BITMAP
0000
1980
1980
0000
78E0
3040
3040
3040
3040
3040
3040
3040
3040
3040
3040
3040
3040
1040
1880
0700
0000
0000
0000
0000
ENDCHAR

STARTCHAR Cdd
ENCODING 221
SWIDTH 500 0
DWIDTH 12 0
BBX 12 24 0 -4
BITMAP
0000
1980
1980
0000
78E0
3040
3040
1880
1880
1880
0D00
0D00
0D00
0600
0600
0600
0600
0600
0600
0F00
0000
0000
0000
0000
ENDCHAR

STARTCHAR Cde
ENCODING 222
SWIDTH 500 0
DWIDTH 12 0
BBX 12 24 0 -4
BITMAP
0000
0000
0000
0000
0000
0000
0000
0000
0000
0000
0000
0000
0000
0000
0000
0000
0000
0000
0000
0000
0000
0000
0000
0000
ENDCHAR

STARTCHAR Cdf
ENCODING 223
SWIDTH 500 0
DWIDTH 12 0
BBX 12 24 0 -4
BITMAP
0000
0000
0000
0300
0C80
08C0
18C0
18C0
18C0
1880
3100
3300
30C0
3040
3060
3060
3060
3060
68C0
6700
6000
6000
6000
0000
ENDCHAR

STARTCHAR Ce0
ENCODING 224
SWIDTH 500 0
DWIDTH 12 0
BBX 12 24 0 -4
BITMAP
0000
0000
0000
0000
0000
1800
3F00
0000
1E00
2100
6180
6180
0180
0780
1980
3180
6180
6180
63A0
3CC0
0000
0000
0000
0000
ENDCHAR

STARTCHAR Ce1
ENCODING 225
SWIDTH 500 0
DWIDTH 12 0
BBX 12 24 0 -4
BITMAP
0000
0000
0000
0000
0000
0600
3F00
0000
1E00
2100
6180
6180
0180
0780
1980
3180
6180
6180
63A0
3CC0
0000
0000
0000
0000
ENDCHAR

STARTCHAR Ce2
ENCODING 226
SWIDTH 500 0
DWIDTH 12 0
BBX 12 24 0 -4
BITMAP
0000
0000
0000
0000
0000
0C00
3300
0000
1E00
2100
6180
6180
0180
0780
1980
3180
6180
6180
63A0
3CC0
0000
0000
0000
0000
ENDCHAR

STARTCHAR Ce3
ENCODING 227
SWIDTH 500 0
DWIDTH 12 0
BBX 12 24 0 -4
BITMAP
0000
0000
0000
0000
0000
1900
2600
0000
1E00
2100
6180
6180
0180
0780
1980
3180
6180
6180
63A0
3CC0
0000
0000
0000
0000
ENDCHAR

STARTCHAR Ce4
ENCODING 228
SWIDTH 500 0
DWIDTH 12 0
BBX 12 24 0 -4
BITMAP
0000
0000
0000
0000
0000
3300
3300
0000
1E00
2100
6180
6180
0180
0780
1980
3180
6180
6180
63A0
3CC0
0000
0000
0000
0000
ENDCHAR

STARTCHAR Ce5
ENCODING 229
SWIDTH 500 0
DWIDTH 12 0
BBX 12 24 0 -4
BITMAP
0000
0000
0000
0000
0000
0C00
1200
0C00
0000
1E00
2100
6180
6180
0780
1980
3180
6180
6180
63A0
3CC0
0000
0000
0000
0000
ENDCHAR

STARTCHAR Ce6
ENCODING 230
SWIDTH 500 0
DWIDTH 12 0
BBX 12 24 0 -4
BITMAP
0000
0000
0000
0000
0000
0000
0000
0000
1D80
2640
6660
6660
0660
0FE0
1600
2600
6600
6620
6620
39C0
0000
0000
0000
0000
ENDCHAR

STARTCHAR Ce7
ENCODING 231
SWIDTH 500 0
DWIDTH 12 0
BBX 12 24 0 -4
BITMAP
0000
0000
0000
0000
0000
0000
0000
0000
0F40
30C0
2040
6040
6000
6000
6000
6000
2040
3080
0F00
0200
0300
0080
0F00
0000
ENDCHAR

STARTCHAR Ce8
ENCODING 232
SWIDTH 500 0
DWIDTH 12 0
BBX 12 24 0 -4
BITMAP
0000
0000
0000
0000
0000
0C00
1F80
0000
0E00
3180
2080
60C0
60C0
7FC0
6000
6000
6000
2040
3080
0F00
0000
0000
0000
0000
ENDCHAR

STARTCHAR Ce9
ENCODING 233
SWIDTH 500 0
DWIDTH 12 0
BBX 12 24 0 -4
BITMAP
0000
0000
0000
0000
0000
0300
1F80
0000
0E00
3180
2080
60C0
60C0
7FC0
6000
6000
6000
2040
3080
0F00
0000
0000
0000
0000
ENDCHAR

STARTCHAR Cea
ENCODING 234
SWIDTH 500 0
DWIDTH 12 0
BBX 12 24 0 -4
BITMAP
0000
0000
0000
0000
0000
0600
1980
0000
0E00
3180
2080
60C0
60C0
7FC0
6000
6000
6000
2040
3080
0F00
0000
0000
0000
0000
ENDCHAR

STARTCHAR Ceb
ENCODING 235
SWIDTH 500 0
DWIDTH 12 0
BBX 12 24 0 -4
BITMAP
0000
0000
0000
0000
0000
1980
1980
0000
0E00
3180
2080
60C0
60C0
7FC0
6000
6000
6000
2040
3080
0F00
0000
0000
0000
0000
ENDCHAR

STARTCHAR Cec
ENCODING 236
SWIDTH 500 0
DWIDTH 12 0
BBX 12 24 0 -4
BITMAP
0000
0000
0000
0000
0000
0C00
1F80
0000
1E00
0600
0600
0600
0600
0600
0600
0600
0600
0600
0600
1F80
0000
0000
0000
0000
ENDCHAR

STARTCHAR Ced
ENCODING 237
SWIDTH 500 0
DWIDTH 12 0
BBX 12 24 0 -4
BITMAP
0000
0000
0000
0000
0000
0300
1F80
0000
1E00
0600
0600
0600
0600
0600
0600
0600
0600
0600
0600
1F80
0000
0000
0000
0000
ENDCHAR

STARTCHAR Cee
ENCODING 238
SWIDTH 500 0
DWIDTH 12 0
BBX 12 24 0 -4
BITMAP
0000
0000
0000
0000
0000
0600
1980
0000
1E00
0600
0600
0600
0600
0600
0600
0600
0600
0600
0600
1F80
0000
0000
0000
0000
ENDCHAR

STARTCHAR Cef
ENCODING 239
SWIDTH 500 0
DWIDTH 12 0
BBX 12 24 0 -4
BITMAP
0000
0000
0000
0000
0000
1980
1980
0000
1E00
0600
0600
0600
0600
0600
0600
0600
0600
0600
0600
1F80
0000
0000
0000
0000
ENDCHAR

STARTCHAR Cf0
ENCODING 240
SWIDTH 500 0
DWIDTH 12 0
BBX 12 24 0 -4
BITMAP
0000
0000
0000
0000
0000
0000
0000
0000
0000
0000
0000
0000
0000
0000
0000
0000
0000
0000
0000
0000
0000
0000
0000
0000
ENDCHAR

STARTCHAR Cf1
ENCODING 241
SWIDTH 500 0
DWIDTH 12 0
BBX 12 24 0 -4
BITMAP
0000
0000
0000
0000
0000
0C80
1300
0000
3700
7880
30C0
30C0
30C0
30C0
30C0
30C0
30C0
30C0
30C0
79E0
0000
0000
0000
0000
ENDCHAR

STARTCHAR Cf2
ENCODING 242
SWIDTH 500 0
DWIDTH 12 0
BBX 12 24 0 -4
BITMAP
0000
0000
0000
0000
0000
0C00
1F80
0000
0F00
30C0
2040
6060
6060
6060
6060
6060
6060
2040
30C0
0F00
0000
0000
0000
0000
ENDCHAR

STARTCHAR Cf3
ENCODING 243
SWIDTH 500 0
DWIDTH 12 0
BBX 12 24 0 -4
BITMAP
0000
0000
0000
0000
0000
0300
1F80
0000
0F00
30C0
2040
6060
6060
6060
6060
6060
6060
2040
30C0
0F00
0000
0000
0000
0000
ENDCHAR

STARTCHAR Cf4
ENCODING 244
SWIDTH 500 0
DWIDTH 12 0
BBX 12 24 0 -4
BITMAP
0000
0000
0000
0000
0000
0600
1980
0000
0F00
30C0
2040
6060
6060
6060
6060
6060
6060
2040
30C0
0F00
0000
0000
0000
0000
ENDCHAR

STARTCHAR Cf5
ENCODING 245
SWIDTH 500 0
DWIDTH 12 0
BBX 12 24 0 -4
BITMAP
0000
0000
0000
0000
0000
0C80
1300
0000
0F00
30C0
2040
6060
6060
6060
6060
6060
6060
2040
30C0
0F00
0000
0000
0000
0000
ENDCHAR

STARTCHAR Cf6
ENCODING 246
SWIDTH 500 0
DWIDTH 12 0
BBX 12 24 0 -4
BITMAP
0000
0000
0000
0000
0000
1980
1980
0000
0F00
30C0
2040
6060
6060
6060
6060
6060
6060
2040
30C0
0F00
0000
0000
0000
0000
ENDCHAR

STARTCHAR Cf7
ENCODING 247
SWIDTH 500 0
DWIDTH 12 0
BBX 12 24 0 -4
BITMAP
0000
0000
0000
0000
0000
0000
0000
0000
1980
2640
6660
6660
6660
67E0
6600
6600
6600
6620
2620
19C0
0000
0000
0000
0000
ENDCHAR

STARTCHAR Cf8
ENCODING 248
SWIDTH 500 0
DWIDTH 12 0
BBX 12 24 0 -4
BITMAP
0000
0000
0000
0000
0000
0000
0080
0080
0F00
31C0
2140
6260
6260
6260
6460
6460
6460
2840
38C0
0F00
1000
1000
0000
0000
ENDCHAR

STARTCHAR Cf9
ENCODING 249
SWIDTH 500 0
DWIDTH 12 0
BBX 12 24 0 -4
BITMAP
0000
0000
0000
0000
0000
0C00
1F80
0000
1040
71C0
30C0
30C0
30C0
30C0
30C0
30C0
30C0
30C0
11C0
0E60
0000
0000
0000
0000
ENDCHAR

STARTCHAR Cfa
ENCODING 250
SWIDTH 500 0
DWIDTH 12 0
BBX 12 24 0 -4
BITMAP
0000
0000
0000
0000
0000
0300
1F80
0000
1040
71C0
30C0
30C0
30C0
30C0
30C0
30C0
30C0
30C0
11C0
0E60
0000
0000
0000
0000
ENDCHAR

STARTCHAR Cfb
ENCODING 251
SWIDTH 500 0
DWIDTH 12 0
BBX 12 24 0 -4
BITMAP
0000
0000
0000
0000
0000
0600
1980
0000
1040
71C0
30C0
30C0
30C0
30C0
30C0
30C0
30C0
30C0
11C0
0E60
0000
0000
0000
0000
ENDCHAR

STARTCHAR Cfc
ENCODING 252
SWIDTH 500 0
DWIDTH 12 0
BBX 12 24 0 -4
BITMAP
0000
0000
0000
0000
0000
1980
1980
0000
1040
71C0
30C0
30C0
30C0
30C0
30C0
30C0
30C0
30C0
11C0
0E60
0000
0000
0000
0000
ENDCHAR

STARTCHAR Cfd
ENCODING 253
SWIDTH 500 0
DWIDTH 12 0
BBX 12 24 0 -4
BITMAP
0000
0000
0000
0000
0000
1980
1980
0000
78E0
3040
3040
3040
1880
1880
1880
0D00
0D00
0D00
0600
0600
6400
6400
3800
0000
ENDCHAR
ENDFONT
